<svg xmlns="http://www.w3.org/2000/svg" width="25" height="31" viewBox="0 0 25 31"><path fill="#ffffff" fill-rule="evenodd" d="M18.104.85c.023.88-.038 1.75-.343 2.586-.717 1.96-1.972 3.406-3.985 4.093-.434.149-.915.162-1.372.234-.247.038-.315-.084-.324-.316-.067-1.451.445-2.715 1.268-3.862 1.09-1.514 2.59-2.376 4.416-2.69.038-.007.07-.03.106-.045h.234zm5.324 10.136c-.579.562-1.164 1.067-1.67 1.638-1.095 1.23-1.535 2.709-1.472 4.339.062 1.59.562 3.016 1.671 4.189a7.592 7.592 0 002.102 1.555c.16.083.2.157.137.338-.797 2.363-2.079 4.436-3.743 6.276-.838.925-1.865 1.52-3.165 1.388-.524-.054-1.048-.204-1.548-.379-.75-.264-1.464-.624-2.27-.733-1.081-.146-2.108.044-3.111.444-.507.2-1.012.405-1.53.57-1.15.364-2.186.106-3.122-.629-.83-.651-1.473-1.473-2.083-2.317a18.9 18.9 0 01-3.248-7.336c-.435-2.093-.542-4.194.026-6.278C1.016 11.788 2.276 10 4.41 8.926c1.677-.843 3.414-1.018 5.196-.33.573.221 1.147.429 1.718.653.665.263 1.32.258 1.99.004.79-.3 1.58-.605 2.386-.861 2.77-.885 5.973.172 7.677 2.512.027.039.05.082.05.082z"/></svg>