<svg xmlns="http://www.w3.org/2000/svg" width="26" height="31" viewBox="0 0 26 31"><path fill="#ffffff" fill-rule="evenodd" d="M5.059 10.982h16.42c.006.118.017.228.017.336.001 3.992.002 7.985 0 11.978 0 .952-.452 1.403-1.392 1.404-.637.001-1.272.006-1.908.009-.018 0-.037.017-.095.042 0 0 .012 2.954-.01 4.256-.01.723-.384 1.253-1.039 1.544-.642.283-1.267.192-1.822-.245a1.653 1.653 0 01-.653-1.36c.002-1.291 0-4.23 0-4.23h-2.598s.01 2.92-.004 4.19c-.016 1.237-1.103 2.059-2.26 1.727-.744-.212-1.255-.897-1.259-1.71-.006-1.282-.003-4.224-.003-4.224-.754 0-1.481.007-2.207-.002a1.167 1.167 0 01-1.137-.858 1.934 1.934 0 01-.047-.464c-.005-.647-.003-12.393-.003-12.393zm-.092-.821C5.37 7.336 6.79 5.223 9.213 3.754L8.016 1.418c-.095-.18-.1-.349.108-.447.201-.096.309.039.392.198.372.72.742 1.442 1.116 2.162.027.055.064.105.099.162 2.337-1.032 4.668-1.04 7.031-.028.337-.583 1.245-2.146 1.359-2.346.092-.16.218-.274.403-.167.198.113.174.283.071.457a339.61 339.61 0 00-1.325 2.31c2.468 1.457 3.905 3.59 4.313 6.442H4.967zm5.244-3.588a.692.692 0 00-.677-.712.695.695 0 00-.694.665.69.69 0 00.677.71.684.684 0 00.694-.663zm7.509-.03a.69.69 0 00-.7-.683.705.705 0 00-.675.681.692.692 0 00.688.695c.385 0 .689-.31.687-.693zm8.058 9.664c0 1.301.01 2.604-.005 3.904-.004.789-.535 1.48-1.258 1.683-.767.219-1.589-.062-1.977-.752a2.24 2.24 0 01-.283-1.034c-.022-2.53-.02-5.06-.01-7.591.005-1.052.777-1.815 1.786-1.807 1 .008 1.746.791 1.747 1.847v3.75zm-21.485.024c.002 1.282.013 2.562-.003 3.843-.014 1.191-1.033 1.995-2.176 1.74A1.742 1.742 0 01.767 20.14a770.154 770.154 0 01.001-7.81c.005-.973.79-1.72 1.741-1.72.997 0 1.766.733 1.778 1.747.02 1.29.005 2.582.006 3.873z"/></svg>